<?xml version="1.0" encoding="UTF-8" standalone="no" ?>
<!DOCTYPE svg PUBLIC "-//W3C//DTD SVG 1.1//EN" "http://www.w3.org/Graphics/SVG/1.1/DTD/svg11.dtd">
<svg xmlns="http://www.w3.org/2000/svg" xmlns:xlink="http://www.w3.org/1999/xlink" version="1.1" width="500" height="500" viewBox="0 0 500 500" xml:space="preserve">
<desc>Created with Fabric.js 3.6.3</desc>
<defs>
</defs>
<g transform="matrix(1 0 0 1 250 250)"  >
<rect style="stroke: none; stroke-width: 1; stroke-dasharray: none; stroke-linecap: butt; stroke-dashoffset: 0; stroke-linejoin: miter; stroke-miterlimit: 4; fill: rgb(255,255,255); fill-rule: nonzero; opacity: 1;"  x="-250" y="-250" rx="0" ry="0" width="500" height="500" />
</g>
<g transform="matrix(2.18010737696623 0 0 2.18010737696623 250 173.6210364270828)"  >
<linearGradient id="SVGID_47733" gradientUnits="userSpaceOnUse" gradientTransform="matrix(1 0 0 1 4.984695999999985 2.632300000000008)"  x1="0" y1="0" x2="90.03190400000001" y2="94.73137900000002">
<stop offset="0%" style="stop-color:rgb(125,195,253);stop-opacity: 1"/>
<stop offset="100%" style="stop-color:rgb(7,31,42);stop-opacity: 1"/>
</linearGradient>
<path style="stroke: none; stroke-width: 0; stroke-dasharray: none; stroke-linecap: butt; stroke-dashoffset: 0; stroke-linejoin: miter; stroke-miterlimit: 4; fill: url(#SVGID_47733); fill-rule: evenodd; opacity: 1;"  transform=" translate(-50.00064799999999, -49.99798950000002)" d="m 57.332 45.02 c -4.1367 -4.1367 -10.621 -4.7773 -15.488 -1.5234 c -4.8633 3.25 -6.7578 9.4844 -4.5195 14.891 c 2.2422 5.4062 7.9883 8.4766 13.727 7.3359 s 9.8711 -6.1758 9.8711 -12.027 c 0.003906 -3.2539 -1.2891 -6.375 -3.5898 -8.6758 z m 33.395 -27.484 h -9.1914 v 9.1914 h 9.1914 z m -8.8516 25.488 c 0.10547 0.31641 0.20312 0.64453 0.29297 0.96094 c 0.16016 0.55859 0.31641 1.1641 0.46875 1.8086 v 0.003906 c 0.10547 0.46094 0.48047 0.8125 0.94922 0.88672 l 8.7461 1.4727 v 11.07 l -8.7539 1.4727 v 0.003906 c -0.47656 0.078125 -0.85156 0.44141 -0.94922 0.91016 c -0.42969 1.8516 -1.0117 3.6641 -1.7422 5.418 c -0.73438 1.7695 -1.6133 3.4766 -2.6289 5.1016 c -0.26172 0.41406 -0.23047 0.94922 0.074219 1.3359 l 5.1172 7.1914 l -7.8281 7.8281 l -7.2383 -5.1523 h -0.003906 c -0.38281 -0.26953 -0.88672 -0.28516 -1.2852 -0.039063 c -3.25 2.0312 -6.8125 3.5078 -10.543 4.375 c -0.46094 0.10547 -0.81641 0.48047 -0.89062 0.94531 l -1.4727 8.7461 h -11.062 l -1.4727 -8.7539 c -0.082032 -0.47266 -0.44531 -0.85156 -0.91406 -0.94922 c -3.7227 -0.86328 -7.2773 -2.3398 -10.52 -4.3672 c -0.41406 -0.26172 -0.94922 -0.23047 -1.3359 0.078125 l -7.1914 5.1172 l -7.8281 -7.8281 l 5.1523 -7.2383 v -0.003906 c 0.27344 -0.38281 0.28906 -0.89062 0.039063 -1.2891 c -1.0156 -1.625 -1.8945 -3.3281 -2.6328 -5.0977 c -0.73047 -1.7656 -1.3125 -3.5859 -1.7422 -5.4414 c -0.10547 -0.46484 -0.48047 -0.81641 -0.94922 -0.89062 l -8.7461 -1.4727 v -11.07 l 8.7539 -1.4727 c 0.47656 -0.078125 0.85156 -0.44141 0.94922 -0.91406 c 0.86328 -3.7227 2.3398 -7.2773 4.3633 -10.516 c 0.26172 -0.41797 0.23438 -0.95312 -0.074219 -1.3398 l -5.1172 -7.1914 l 7.8281 -7.8281 l 7.2383 5.1523 h 0.003907 c 0.38281 0.27344 0.89062 0.28906 1.2891 0.039063 c 1.625 -1.0156 3.3281 -1.8945 5.0977 -2.6289 c 1.7656 -0.73047 3.5859 -1.3164 5.4453 -1.7461 c 0.46094 -0.10547 0.8125 -0.48047 0.88672 -0.94922 l 1.4727 -8.7461 h 9.7422 l -0.26953 18.953 c -0.41406 -0.066406 -0.83203 -0.12109 -1.2539 -0.16406 c -0.89062 -0.09375 -1.7852 -0.14453 -2.6836 -0.14453 c -6.6367 0 -13.004 2.6367 -17.699 7.332 c -4.6953 4.6953 -7.332 11.062 -7.332 17.699 c -0.003906 6.6406 2.6367 13.008 7.3281 17.703 c 4.6953 4.6953 11.062 7.332 17.703 7.332 c 6.6367 0 13.004 -2.6367 17.699 -7.332 c 4.6953 -4.6953 7.332 -11.062 7.332 -17.699 c 0 -1.1172 -0.074219 -2.2305 -0.22266 -3.332 c -0.082032 -0.60938 -0.18359 -1.2109 -0.30469 -1.7969 h 3.1836 c 0.64062 0 1.1641 -0.52344 1.1641 -1.1641 c 0 -0.050782 -0.003906 -0.097656 -0.007812 -0.14844 l -0.21094 -4.2539 l 4.582 0.023438 z m -13.113 -10.809 h -6.75 v 6.7539 h 6.75 z m 19.137 2.1602 l -3.3633 0.003906 v 3.3672 h 3.3633 z m 7.1172 -28.227 h -3.3672 v 3.3672 h 3.3672 z m -11.984 1.3906 h -3.3633 v 3.3672 h 3.3633 z m -12.926 6.4805 h -9.1875 v 9.1914 h 9.1875 z m 0.8125 -11.387 h -3.3633 v 3.3672 h 3.3633 z m 6.6992 29.949 h -3.3672 v 3.3672 h 3.3633 z" stroke-linecap="round" />
</g>
<g transform="matrix(1 0 0 1 250.25 377.59666666666664)" style=""  ><path fill="url(#CUSTOM_SVGID_2241)" opacity="1" d="M-210.01-30.10L-179.59-30.10Q-170.78-30.10-166.22-25.53Q-161.66-20.97-161.66-12.16L-161.66-12.16L-161.66 6.56Q-161.66 15.38-166.22 19.94Q-170.78 24.50-179.59 24.50L-179.59 24.50L-210.01 24.50L-210.01-30.10ZM-175.69 6.56L-175.69-12.16Q-175.69-19.18-182.72-19.18L-182.72-19.18L-195.97-19.18L-195.97 13.58L-182.72 13.58Q-175.69 13.58-175.69 6.56L-175.69 6.56Z"/>
    <linearGradient id="CUSTOM_SVGID_2241" gradientUnits="userSpaceOnUse" gradientTransform="matrix(1 0 0 1 -435.02196322062696 -44.06999999999999)"  x1="0" y1="0" x2="870.0439264412539" y2="88.13999999999999">
      <stop  offset="0" style="stop-color:rgb(125,195,253);stop-opacity:undefined"/><stop  offset="1" style="stop-color:rgb(7,31,42);stop-opacity:undefined"/>
    </linearGradient>
  <path fill="url(#CUSTOM_SVGID_2242)" opacity="1" d="M-122.26-7.87L-129.28-7.87Q-132.40-7.87-132.40-4.75L-132.40-4.75L-132.40-0.46L-119.14-0.46L-119.14-4.75Q-119.14-7.87-122.26-7.87L-122.26-7.87ZM-107.05 13.97L-107.05 23.72Q-122.11 25.28-134.35 25.28L-134.35 25.28Q-139.66 25.28-142.86 22.08Q-146.05 18.89-146.05 13.58L-146.05 13.58L-146.05-5.14Q-146.05-10.99-142.74-14.30Q-139.42-17.62-133.57-17.62L-133.57-17.62L-117.97-17.62Q-112.12-17.62-108.81-14.30Q-105.49-10.99-105.49-5.14L-105.49-5.14L-105.49 9.29L-132.40 9.29L-132.40 12.41Q-132.40 13.58-131.62 14.36Q-130.84 15.14-129.67 15.14L-129.67 15.14Q-121.95 15.14-107.05 13.97L-107.05 13.97Z"/>
    <linearGradient id="CUSTOM_SVGID_2242" gradientUnits="userSpaceOnUse" gradientTransform="matrix(1 0 0 1 -435.02196322062696 -44.06999999999999)"  x1="0" y1="0" x2="870.0439264412539" y2="88.13999999999999">
      <stop  offset="0" style="stop-color:rgb(125,195,253);stop-opacity:undefined"/><stop  offset="1" style="stop-color:rgb(7,31,42);stop-opacity:undefined"/>
    </linearGradient>
  <path fill="url(#CUSTOM_SVGID_2243)" opacity="1" d="M-60.25 14.36L-60.25 24.50Q-67.82 25.28-75.07 25.28L-75.07 25.28Q-80.38 25.28-83.58 22.08Q-86.77 18.89-86.77 13.58L-86.77 13.58L-86.77-6.31L-91.45-6.31L-91.45-16.84L-86.77-16.84L-85.21-26.20L-73.12-26.20L-73.12-16.84L-63.37-16.84L-63.37-6.31L-73.12-6.31L-73.12 11.63Q-73.12 12.80-72.34 13.58Q-71.56 14.36-70.39 14.36L-70.39 14.36L-60.25 14.36Z"/>
    <linearGradient id="CUSTOM_SVGID_2243" gradientUnits="userSpaceOnUse" gradientTransform="matrix(1 0 0 1 -435.02196322062696 -44.06999999999999)"  x1="0" y1="0" x2="870.0439264412539" y2="88.13999999999999">
      <stop  offset="0" style="stop-color:rgb(125,195,253);stop-opacity:undefined"/><stop  offset="1" style="stop-color:rgb(7,31,42);stop-opacity:undefined"/>
    </linearGradient>
  <path fill="url(#CUSTOM_SVGID_2244)" opacity="1" d="M-32.56 14.36L-30.61 14.36Q-26.48 14.36-21.25 12.80L-21.25 12.80L-21.25 8.12L-32.56 8.12Q-33.73 8.12-34.51 8.90Q-35.29 9.68-35.29 10.85L-35.29 10.85L-35.29 11.63Q-35.29 12.80-34.51 13.58Q-33.73 14.36-32.56 14.36L-32.56 14.36ZM-45.04-6.31L-45.04-16.06Q-30.77-17.62-19.30-17.62L-19.30-17.62Q-14.00-17.62-10.80-14.42Q-7.60-11.22-7.60-5.92L-7.60-5.92L-7.60 24.50L-19.69 24.50L-20.47 20.60Q-24.14 23.02-28.00 24.15Q-31.86 25.28-34.51 25.28L-34.51 25.28L-37.24 25.28Q-42.55 25.28-45.75 22.08Q-48.94 18.89-48.94 13.58L-48.94 13.58L-48.94 10.07Q-48.94 4.77-45.75 1.57Q-42.55-1.63-37.24-1.63L-37.24-1.63L-21.25-1.63L-21.25-4.75Q-21.25-5.92-22.03-6.70Q-22.81-7.48-23.98-7.48L-23.98-7.48Q-29.05-7.48-35.18-7.01Q-41.30-6.54-45.04-6.31L-45.04-6.31Z"/>
    <linearGradient id="CUSTOM_SVGID_2244" gradientUnits="userSpaceOnUse" gradientTransform="matrix(1 0 0 1 -435.02196322062696 -44.06999999999999)"  x1="0" y1="0" x2="870.0439264412539" y2="88.13999999999999">
      <stop  offset="0" style="stop-color:rgb(125,195,253);stop-opacity:undefined"/><stop  offset="1" style="stop-color:rgb(7,31,42);stop-opacity:undefined"/>
    </linearGradient>
  <path fill="url(#CUSTOM_SVGID_2245)" opacity="1" d="M29.84 14.36L29.84 24.50Q24.61 25.28 19.89 25.28Q15.17 25.28 11.97 22.08Q8.78 18.89 8.78 13.58L8.78 13.58L8.78-30.10L22.43-30.10L22.43 11.63Q22.43 12.80 23.21 13.58Q23.99 14.36 25.16 14.36L25.16 14.36L29.84 14.36Z"/>
    <linearGradient id="CUSTOM_SVGID_2245" gradientUnits="userSpaceOnUse" gradientTransform="matrix(1 0 0 1 -435.02196322062696 -44.06999999999999)"  x1="0" y1="0" x2="870.0439264412539" y2="88.13999999999999">
      <stop  offset="0" style="stop-color:rgb(125,195,253);stop-opacity:undefined"/><stop  offset="1" style="stop-color:rgb(7,31,42);stop-opacity:undefined"/>
    </linearGradient>
  <path fill="url(#CUSTOM_SVGID_2246)" opacity="1" d="M93.02-30.10L93.02 24.50L78.98 24.50L78.98 2.27L59.48 2.27L59.48 24.50L45.44 24.50L45.44-30.10L59.48-30.10L59.48-8.65L78.98-8.65L78.98-30.10L93.02-30.10Z"/>
    <linearGradient id="CUSTOM_SVGID_2246" gradientUnits="userSpaceOnUse" gradientTransform="matrix(1 0 0 1 -435.02196322062696 -44.06999999999999)"  x1="0" y1="0" x2="870.0439264412539" y2="88.13999999999999">
      <stop  offset="0" style="stop-color:rgb(125,195,253);stop-opacity:undefined"/><stop  offset="1" style="stop-color:rgb(7,31,42);stop-opacity:undefined"/>
    </linearGradient>
  <path fill="url(#CUSTOM_SVGID_2247)" opacity="1" d="M127.34 13.97L130.07 13.97Q134.20 13.97 139.43 12.41L139.43 12.41L139.43-16.84L153.08-16.84L153.08 24.50L140.99 24.50L140.21 20.60Q136.54 23.02 132.68 24.15Q128.82 25.28 126.17 25.28L126.17 25.28L122.66 25.28Q117.35 25.28 114.15 22.08Q110.96 18.89 110.96 13.58L110.96 13.58L110.96-16.84L124.61-16.84L124.61 11.24Q124.61 12.41 125.39 13.19Q126.17 13.97 127.34 13.97L127.34 13.97Z"/>
    <linearGradient id="CUSTOM_SVGID_2247" gradientUnits="userSpaceOnUse" gradientTransform="matrix(1 0 0 1 -435.02196322062696 -44.06999999999999)"  x1="0" y1="0" x2="870.0439264412539" y2="88.13999999999999">
      <stop  offset="0" style="stop-color:rgb(125,195,253);stop-opacity:undefined"/><stop  offset="1" style="stop-color:rgb(7,31,42);stop-opacity:undefined"/>
    </linearGradient>
  <path fill="url(#CUSTOM_SVGID_2248)" opacity="1" d="M197.93 10.85L197.93-4.36Q197.93-5.53 197.15-6.31Q196.37-7.09 195.20-7.09L195.20-7.09L193.25-7.09Q189.97-7.09 187.59-6.78Q185.21-6.46 183.89-6.31L183.89-6.31L183.89 13.97L194.81 13.97Q197.93 13.97 197.93 10.85L197.93 10.85ZM183.89-30.10L183.89-16.06Q191.45-17.62 197.15-17.62L197.15-17.62L199.88-17.62Q205.18-17.62 208.38-14.42Q211.58-11.22 211.58-5.92L211.58-5.92L211.58 12.02Q211.58 17.87 208.26 21.19Q204.95 24.50 199.10 24.50L199.10 24.50L170.24 24.50L170.24-30.10L183.89-30.10Z"/>
    <linearGradient id="CUSTOM_SVGID_2248" gradientUnits="userSpaceOnUse" gradientTransform="matrix(1 0 0 1 -435.02196322062696 -44.06999999999999)"  x1="0" y1="0" x2="870.0439264412539" y2="88.13999999999999">
      <stop  offset="0" style="stop-color:rgb(125,195,253);stop-opacity:undefined"/><stop  offset="1" style="stop-color:rgb(7,31,42);stop-opacity:undefined"/>
    </linearGradient>
  </g></svg>
